<?xml version="1.0" encoding="utf-8"?>
<!-- Generator: Adobe Illustrator 22.1.0, SVG Export Plug-In . SVG Version: 6.00 Build 0)  -->
<svg version="1.1" id="Layer_1" xmlns="http://www.w3.org/2000/svg" xmlns:xlink="http://www.w3.org/1999/xlink" x="0px" y="0px"
	 viewBox="0 0 32 32" style="enable-background:new 0 0 32 32;" xml:space="preserve">
<style type="text/css">
	.st0{fill:#FFFFFF;}
</style>
<g>
	<path class="st0" d="M0,10.4v4.8c2-0.8,4.2-1.5,6.3-1.8C6.3,13.4,3.9,10.7,0,10.4z"/>
	<path class="st0" d="M4.9,10.1c3.4,1.8,5,2.9,8.3,2.9c0,0,6.5,0.1,10.4-2.7c0,0-2.8,3.8-8.2,5.1c1.4,0.7,6.6,2.6,11.6,3.3
		c1.7,0.2,3.4,0.2,4.9,0V0H0v9.3C1.5,9,3.2,9.2,4.9,10.1z"/>
	<path class="st0" d="M25.9,22.8c-7.1-0.2-11.9-5-18.5-6.4c-2.3-0.5-5-0.2-7.4,0.3V32h32V21.5C30.2,22.3,28.2,22.9,25.9,22.8z"/>
</g>
</svg>
