<?xml version="1.0" encoding="utf-8"?>
<!-- Generator: Adobe Illustrator 22.1.0, SVG Export Plug-In . SVG Version: 6.00 Build 0)  -->
<svg version="1.1" id="Layer_1" xmlns="http://www.w3.org/2000/svg" xmlns:xlink="http://www.w3.org/1999/xlink" x="0px" y="0px"
	 viewBox="0 0 31.9 31.3" style="enable-background:new 0 0 31.9 31.3;" xml:space="preserve">
<style type="text/css">
	.st0{fill:#FFFFFF;}
</style>
<title></title>
<g id="icomoon-ignore">
</g>
<path class="st0" d="M29.6,25.4V11.7c-0.4,0.4-0.8,0.8-1.2,1.2c-2.6,2-5.1,4-7.6,6c-1.3,1.1-3,2.5-4.9,2.5h0c-1.9,0-3.5-1.4-4.9-2.5
	c-2.5-2.1-5.1-4.1-7.6-6c-0.4-0.4-0.9-0.8-1.2-1.2v13.7c0,0.3,0.3,0.6,0.6,0.6h26.3C29.4,25.9,29.6,25.7,29.6,25.4z M29.6,6.6
	c0-0.4,0.1-1.2-0.6-1.2H2.8c-0.3,0-0.6,0.3-0.6,0.6c0,2,1,3.8,2.6,5.1c2.4,1.9,4.8,3.8,7.2,5.7c0.9,0.8,2.7,2.4,3.9,2.4h0
	c1.2,0,3-1.6,3.9-2.4c2.4-1.9,4.8-3.8,7.2-5.7C28.2,10.1,29.6,8.1,29.6,6.6z M31.9,5.9v19.4c0,1.6-1.3,2.9-2.9,2.9H2.8
	c-1.6,0-2.9-1.3-2.9-2.9V5.9c0-1.6,1.3-2.9,2.9-2.9h26.3C30.6,3.1,31.9,4.4,31.9,5.9z"/>
</svg>
