<svg xmlns="http://www.w3.org/2000/svg" viewBox="0 0 5.84 5.84"><title>Asset 1</title><g id="Layer_2" data-name="Layer 2"><g id="Layer_1-2" data-name="Layer 1"><path d="M2.92,0C2.13,0,2,0,1.72,0A2.09,2.09,0,0,0,1,.15,1.52,1.52,0,0,0,.15,1,2.09,2.09,0,0,0,0,1.72C0,2,0,2.13,0,2.92s0,.89,0,1.2a2,2,0,0,0,.13.71,1.46,1.46,0,0,0,.34.52A1.56,1.56,0,0,0,1,5.69a2.09,2.09,0,0,0,.71.13c.31,0,.41,0,1.2,0s.89,0,1.2,0a2,2,0,0,0,.71-.13,1.52,1.52,0,0,0,.86-.86,2,2,0,0,0,.13-.71c0-.31,0-.41,0-1.2s0-.89,0-1.2A2.09,2.09,0,0,0,5.69,1,1.56,1.56,0,0,0,5.35.49,1.46,1.46,0,0,0,4.83.15,2,2,0,0,0,4.12,0c-.31,0-.41,0-1.2,0Zm0,.53H4.1a1.75,1.75,0,0,1,.54.1,1,1,0,0,1,.56.56,1.82,1.82,0,0,1,.1.54c0,.31,0,.4,0,1.18s0,.87,0,1.18a1.75,1.75,0,0,1-.1.54,1,1,0,0,1-.56.56,1.75,1.75,0,0,1-.54.1H1.74a1.82,1.82,0,0,1-.54-.1,1,1,0,0,1-.56-.56,1.75,1.75,0,0,1-.1-.54c0-.31,0-.4,0-1.18s0-.87,0-1.18a1.82,1.82,0,0,1,.1-.54A1,1,0,0,1,1.2.64a1.82,1.82,0,0,1,.54-.1H2.92" transform="translate(0 0)"/><path d="M2.92,3.89a1,1,0,1,1,1-1,1,1,0,0,1-1,1Zm0-2.47a1.5,1.5,0,1,0,1.5,1.5,1.5,1.5,0,0,0-1.5-1.5Z" transform="translate(0 0)"/><path d="M4.83,1.36a.35.35,0,0,1-.7,0,.35.35,0,1,1,.7,0Z" transform="translate(0 0)"/></g></g></svg>