<?xml version="1.0" encoding="utf-8"?>
<!-- Generator: Adobe Illustrator 22.1.0, SVG Export Plug-In . SVG Version: 6.00 Build 0)  -->
<svg version="1.1" id="Layer_1" xmlns="http://www.w3.org/2000/svg" xmlns:xlink="http://www.w3.org/1999/xlink" x="0px" y="0px"
	 viewBox="0 0 32 32.1" style="enable-background:new 0 0 32 32.1;" xml:space="preserve">
<style type="text/css">
	.instagram{fill:#FFFFFF;}
</style>
<title>Asset 1</title>
<g id="Layer_2_1_">
	<g id="Layer_1-2">
		<path class="instagram" d="M16.1,0C11.7,0,11,0,9.5,0c-1.4,0-2.7,0.3-4,0.8C3.4,1.7,1.7,3.4,0.8,5.5C0.3,6.8,0,8.1,0,9.5
			c0,1.5,0,2.3,0,6.6s0,4.9,0,6.6c0,1.3,0.2,2.7,0.7,3.9c0.4,1.1,1.1,2.1,1.9,2.9c0.8,0.8,1.8,1.5,2.9,1.9c1.3,0.5,2.6,0.7,3.9,0.7
			c1.7,0,2.3,0,6.6,0s4.9,0,6.6,0c1.3,0,2.7-0.2,3.9-0.7c2.2-0.9,3.9-2.6,4.7-4.7c0.5-1.2,0.7-2.6,0.7-3.9c0-1.7,0-2.3,0-6.6
			s0-4.9,0-6.6c0-1.4-0.2-2.7-0.7-4c-0.4-1.1-1.1-2-1.9-2.8c-0.8-0.8-1.8-1.5-2.9-1.9C25.4,0.3,24,0,22.7,0C21,0,20.4,0,16.1,0z
			 M16.1,2.9h6.5c1,0,2,0.2,3,0.6C27,4,28.1,5.1,28.6,6.6c0.3,1,0.5,2,0.6,3c0,1.7,0,2.2,0,6.5s0,4.8,0,6.5c0,1-0.2,2-0.6,3
			c-0.6,1.4-1.7,2.5-3.1,3.1c-1,0.3-2,0.5-3,0.6h-13c-1,0-2-0.2-3-0.6c-1.4-0.6-2.5-1.7-3.1-3.1c-0.3-1-0.5-2-0.6-3
			c0-1.7,0-2.2,0-6.5s0-4.8,0-6.5c0-1,0.2-2,0.6-3c0.6-1.4,1.7-2.5,3.1-3c1-0.3,2-0.5,3-0.6L16.1,2.9"/>
		<path class="instagram" d="M16.1,21.4c-3,0-5.5-2.5-5.5-5.5s2.5-5.5,5.5-5.5s5.5,2.5,5.5,5.5S19.1,21.4,16.1,21.4z M16.1,7.8
			c-4.6,0-8.3,3.7-8.3,8.3s3.7,8.3,8.3,8.3s8.3-3.7,8.3-8.3S20.6,7.8,16.1,7.8z"/>
		<path class="instagram" d="M26.6,7.5c0,1.1-0.9,1.9-1.9,1.9c-1.1,0-1.9-0.9-1.9-1.9c0-1.1,0.9-1.9,1.9-1.9S26.6,6.4,26.6,7.5
			C26.6,7.5,26.6,7.5,26.6,7.5z"/>
	</g>
</g>
</svg>
