<?xml version="1.0" encoding="utf-8"?>
<!-- Generator: Adobe Illustrator 22.1.0, SVG Export Plug-In . SVG Version: 6.00 Build 0)  -->
<svg version="1.1" id="Layer_1" xmlns="http://www.w3.org/2000/svg" xmlns:xlink="http://www.w3.org/1999/xlink" x="0px" y="0px"
	 viewBox="0 0 144 42" style="enable-background:new 0 0 144 42;" xml:space="preserve">
<style type="text/css">
	.logo{fill:#00547F;}
</style>
<path class="logo" d="M70.4,19.1c4.5,2.3,20.7,8,36.4,10.3c14.6,2.1,26.4-2.4,37.2-7.2c0,0-17.5,20.8-40.9,20.2
	c-22.2-0.5-37.1-15.8-57.9-20c-18-3.7-45.2,7.7-45.2,7.7s22-14.9,41.7-17.1c0,0-14.4-16.2-34.9-6.3c0,0,14.9-12.4,30.5-4.3
	c10.5,5.5,15.6,9,26,9c0,0,20.4,0.4,32.7-8.3C96.1,3.2,87.4,15.1,70.4,19.1z"/>
</svg>
